<?xml version="1.0" encoding="UTF-8"?>
<!DOCTYPE svg PUBLIC "-//W3C//DTD SVG 1.1//EN" "http://www.w3.org/Graphics/SVG/1.1/DTD/svg11.dtd">
<svg xmlns="http://www.w3.org/2000/svg" version="1.1" width="512px" height="512px" style="shape-rendering:geometricPrecision; text-rendering:geometricPrecision; image-rendering:optimizeQuality; fill-rule:evenodd; clip-rule:evenodd" xmlns:xlink="http://www.w3.org/1999/xlink">
<g><path style="opacity:0.991" fill="#5065a1" d="M 233.5,-0.5 C 248.167,-0.5 262.833,-0.5 277.5,-0.5C 377.805,11.9821 449.305,63.9821 492,155.5C 502.297,180.687 508.797,206.687 511.5,233.5C 511.5,245.5 511.5,257.5 511.5,269.5C 470.868,229.368 430.368,189.035 390,148.5C 389.601,148.728 389.435,149.062 389.5,149.5C 340.274,92.6771 278.941,73.5104 205.5,92C 164.654,105.389 132.987,130.223 110.5,166.5C 109.599,167.29 108.932,168.29 108.5,169.5C 80.5869,219.158 77.4203,270.491 99,323.5C 110.151,347.803 125.651,368.803 145.5,386.5C 186.785,428.119 228.118,469.785 269.5,511.5C 257.5,511.5 245.5,511.5 233.5,511.5C 133.195,499.018 61.6947,447.018 19,355.5C 8.70332,330.313 2.20332,304.313 -0.5,277.5C -0.5,262.833 -0.5,248.167 -0.5,233.5C 11.9821,133.195 63.9821,61.6947 155.5,19C 180.687,8.70332 206.687,2.20332 233.5,-0.5 Z"/></g>
<g><path style="opacity:1" fill="#b6c7ef" d="M 389.5,149.5 C 429.85,204.296 437.016,263.296 411,326.5C 379.07,389.99 327.404,423.323 256,426.5C 214.443,425.708 177.61,412.374 145.5,386.5C 125.651,368.803 110.151,347.803 99,323.5C 77.4203,270.491 80.5869,219.158 108.5,169.5C 107.709,189.066 110.376,208.066 116.5,226.5C 106.473,287.926 126.473,337.093 176.5,374C 200.195,389.44 226.195,397.273 254.5,397.5C 315.506,395.431 359.339,367.098 386,312.5C 408.951,252.013 398.117,198.513 353.5,152C 325.579,126.383 292.579,113.549 254.5,113.5C 189.435,117.257 144.768,149.257 120.5,209.5C 119.019,205.681 118.186,201.681 118,197.5C 117.667,187.833 117.333,178.167 117,168.5C 115.422,165.695 113.255,165.028 110.5,166.5C 132.987,130.223 164.654,105.389 205.5,92C 278.941,73.5104 340.274,92.6771 389.5,149.5 Z"/></g>
<g><path style="opacity:1" fill="#32373b" d="M 254.5,113.5 C 254.5,146.5 254.5,179.5 254.5,212.5C 253.209,212.263 252.209,212.596 251.5,213.5C 227.61,217.222 214.61,231.222 212.5,255.5C 214.628,279.842 227.628,293.842 251.5,297.5C 252.209,298.404 253.209,298.737 254.5,298.5C 254.5,331.5 254.5,364.5 254.5,397.5C 226.195,397.273 200.195,389.44 176.5,374C 126.473,337.093 106.473,287.926 116.5,226.5C 125.479,249.459 139.979,268.126 160,282.5C 159.634,287.979 161.134,292.812 164.5,297C 174.167,302.667 183.833,308.333 193.5,314C 208.164,315.668 214.331,309.168 212,294.5C 210.859,292.391 209.359,290.558 207.5,289C 198.167,283.667 188.833,278.333 179.5,273C 174.201,271.747 169.368,272.58 165,275.5C 141.591,259.262 126.758,237.262 120.5,209.5C 144.768,149.257 189.435,117.257 254.5,113.5 Z"/></g>
<g><path style="opacity:1" fill="#2b2b2b" d="M 254.5,113.5 C 292.579,113.549 325.579,126.383 353.5,152C 398.117,198.513 408.951,252.013 386,312.5C 359.339,367.098 315.506,395.431 254.5,397.5C 254.5,364.5 254.5,331.5 254.5,298.5C 281.493,296.173 296.16,281.507 298.5,254.5C 295.234,228.568 280.567,214.568 254.5,212.5C 254.5,179.5 254.5,146.5 254.5,113.5 Z"/></g>
<g><path style="opacity:1" fill="#374c7c" d="M 511.5,269.5 C 511.5,272.167 511.5,274.833 511.5,277.5C 499.018,377.805 447.018,449.305 355.5,492C 330.313,502.297 304.313,508.797 277.5,511.5C 274.833,511.5 272.167,511.5 269.5,511.5C 228.118,469.785 186.785,428.119 145.5,386.5C 177.61,412.374 214.443,425.708 256,426.5C 327.404,423.323 379.07,389.99 411,326.5C 437.016,263.296 429.85,204.296 389.5,149.5C 389.435,149.062 389.601,148.728 390,148.5C 430.368,189.035 470.868,229.368 511.5,269.5 Z"/></g>
<g><path style="opacity:1" fill="#fbfbfb" d="M 120.5,209.5 C 126.758,237.262 141.591,259.262 165,275.5C 169.368,272.58 174.201,271.747 179.5,273C 188.833,278.333 198.167,283.667 207.5,289C 209.359,290.558 210.859,292.391 212,294.5C 214.331,309.168 208.164,315.668 193.5,314C 183.833,308.333 174.167,302.667 164.5,297C 161.134,292.812 159.634,287.979 160,282.5C 139.979,268.126 125.479,249.459 116.5,226.5C 110.376,208.066 107.709,189.066 108.5,169.5C 108.932,168.29 109.599,167.29 110.5,166.5C 113.255,165.028 115.422,165.695 117,168.5C 117.333,178.167 117.667,187.833 118,197.5C 118.186,201.681 119.019,205.681 120.5,209.5 Z"/></g>
<g><path style="opacity:1" fill="#fcfcfc" d="M 251.5,213.5 C 252.5,213.5 253.5,213.5 254.5,213.5C 254.5,221.833 254.5,230.167 254.5,238.5C 244.635,239.532 239.302,245.032 238.5,255C 238.849,265.512 244.182,271.345 254.5,272.5C 254.5,280.833 254.5,289.167 254.5,297.5C 253.5,297.5 252.5,297.5 251.5,297.5C 227.628,293.842 214.628,279.842 212.5,255.5C 214.61,231.222 227.61,217.222 251.5,213.5 Z"/></g>
<g><path style="opacity:1" fill="#ced3d7" d="M 251.5,213.5 C 252.209,212.596 253.209,212.263 254.5,212.5C 280.567,214.568 295.234,228.568 298.5,254.5C 296.16,281.507 281.493,296.173 254.5,298.5C 253.209,298.737 252.209,298.404 251.5,297.5C 252.5,297.5 253.5,297.5 254.5,297.5C 254.5,289.167 254.5,280.833 254.5,272.5C 268.744,271.406 274.578,263.74 272,249.5C 268.803,241.651 262.969,237.984 254.5,238.5C 254.5,230.167 254.5,221.833 254.5,213.5C 253.5,213.5 252.5,213.5 251.5,213.5 Z"/></g>
<g><path style="opacity:1" fill="#282828" d="M 254.5,238.5 C 262.969,237.984 268.803,241.651 272,249.5C 274.578,263.74 268.744,271.406 254.5,272.5C 244.182,271.345 238.849,265.512 238.5,255C 239.302,245.032 244.635,239.532 254.5,238.5 Z"/></g>
</svg>
